# xmcd
#
# Track frame offsets: 
#        150
#        19984
#        42870
#        57386
#        73850
#        98612
#        118154
#        135916
#        159238
#        179748
#
# Disc length: 2608 seconds
#
# Revision: 1
# Processed by: cddbd v1.5.2PL0 Copyright (c) Steve Scherf et al.
# Submitted via: ExactAudioCopy v0.99pb3
#
DISCID=870a2e0a
DTITLE=Edward M. Smith - Smooth Jazz Christmas
DYEAR=2007
DGENRE=Jazz
TTITLE0=Angels We Have Heard On High
TTITLE1=Have Yourself A Merry Little Christmas
TTITLE2=Winter Wonderland
TTITLE3=The Holly And The Ivy
TTITLE4=Do You Hear What I Hear?
TTITLE5=It Came Upon A Midnight Clear
TTITLE6=Santa Claus Is Comin' To Town
TTITLE7=Little Drummer Boy
TTITLE8=O Christmas Tree
TTITLE9=Silent Night
EXTD=YEAR: 2007
EXTT0=
EXTT1=
EXTT2=
EXTT3=
EXTT4=
EXTT5=
EXTT6=
EXTT7=
EXTT8=
EXTT9=
PLAYORDER=
